<?xml version="1.0" encoding="utf-8"?>
<!-- Generator: Adobe Illustrator 24.1.1, SVG Export Plug-In . SVG Version: 6.00 Build 0)  -->
<svg version="1.1" id="a780dc9c-2107-4fd6-8fec-765248a5097a"
	 xmlns="http://www.w3.org/2000/svg" xmlns:xlink="http://www.w3.org/1999/xlink" x="0px" y="0px" viewBox="0 0 371.6 215.4"
	 style="enable-background:new 0 0 371.6 215.4;" xml:space="preserve">
<style type="text/css">
	.st0{fill:#E6E6E6;}
	.st1{fill:#FF6584;}
	.st2{fill:#3F3D56;}
	.st3{fill:#6C63FF;}
	.st4{fill:#FFFFFF;}
</style>
<polygon class="st0" points="375,209.5 106.5,215.4 0,187.7 166.3,187.7 "/>
<circle class="st1" cx="298.9" cy="40.4" r="32.8"/>
<path class="st2" d="M263.9,193.5c0,0,0.8-16.9,17.3-14.9"/>
<circle class="st3" cx="259.2" cy="169.2" r="8.3"/>
<rect x="257.9" y="183.1" class="st2" width="2.3" height="16.3"/>
<path class="st2" d="M303.6,196.3c0,0,0.8-16.9,17.3-14.9"/>
<circle class="st3" cx="298.9" cy="172.1" r="8.3"/>
<rect x="297.6" y="186" class="st2" width="2.3" height="16.3"/>
<path class="st2" d="M57.2,182.6c0,0,0.8-16.9,17.3-14.9"/>
<circle class="st3" cx="52.6" cy="158.3" r="8.3"/>
<rect x="51.2" y="172.1" class="st2" width="2.3" height="16.3"/>
<ellipse transform="matrix(0.1602 -0.9871 0.9871 0.1602 26.4411 320.5547)" class="st2" cx="201.6" cy="144.7" rx="35.8" ry="35.8"/>
<path class="st4" d="M179.1,147.6c3.4-4,9.3-4.5,13.3-1.2c0.4,0.3,0.8,0.8,1.2,1.2c4.2-4,4.4-10.7,0.3-14.9s-10.7-4.4-14.9-0.3
	c-4.2,4-4.4,10.7-0.3,14.9C178.8,147.4,178.9,147.5,179.1,147.6z"/>
<path class="st4" d="M207.5,147.6c3.4-4,9.3-4.5,13.3-1.2c0.4,0.3,0.8,0.8,1.2,1.2c4.2-4,4.4-10.7,0.3-14.9
	c-4-4.2-10.7-4.4-14.9-0.3s-4.4,10.7-0.3,14.9C207.2,147.4,207.4,147.5,207.5,147.6z"/>
<circle class="st2" cx="182.7" cy="136.4" r="3.6"/>
<circle class="st2" cx="211.1" cy="136.4" r="3.6"/>
<circle class="st1" cx="175.8" cy="153.7" r="4.2"/>
<circle class="st1" cx="224.2" cy="153.7" r="4.2"/>
<polygon class="st1" points="200,145.3 196.9,158.9 202.1,153.7 "/>
<polygon class="st2" points="216.2,197.9 212.6,194.9 212.7,197.9 211.6,197.9 211.5,194.7 206.7,197.9 204.7,197.9 211.5,193.4 
	211.2,184 211,176.9 212.2,176.9 212.3,184 212.6,193.4 217.9,197.9 "/>
<polygon class="st2" points="199.4,197.9 195.8,194.9 195.9,197.9 194.8,197.9 194.7,194.7 189.8,197.9 187.8,197.9 194.6,193.4 
	194.4,184 194.2,176.9 195.3,176.9 195.5,184 195.8,193.4 201.1,197.9 "/>
<path class="st2" d="M202.1,106.3c-1,0-1.8,0.8-2.4,1.9c-0.5-1.7-1.6-3-2.8-3c-0.1,0-0.2,0-0.3,0c-0.5-1.9-1.6-3.2-2.9-3.2
	c-1.7,0-3.1,2.4-3.1,5.3s1.4,5.3,3.1,5.3c0.1,0,0.2,0,0.3,0c0.5,1.9,1.6,3.2,2.9,3.2c1,0,1.8-0.8,2.4-1.9c0.5,1.7,1.6,3,2.8,3
	c1.7,0,3.1-2.4,3.1-5.3S203.9,106.3,202.1,106.3z"/>
<path class="st3" d="M168,158.3L168,158.3c-5.8,0-10.5-4.7-10.5-10.5l0,0v-5.3c0-5.8,4.7-10.5,10.5-10.5l0,0l0,0l0,0V158.3
	L168,158.3z"/>
<path class="st3" d="M235.2,132L235.2,132c5.8,0,10.5,4.7,10.5,10.5v5.3c0,5.8-4.7,10.5-10.5,10.5l0,0l0,0l0,0V132L235.2,132z"/>
<path class="st3" d="M240.7,143.3H239c0-21.2-17.2-38.4-38.4-38.4s-38.4,17.2-38.4,38.4h-1.7c0-22.1,18-40.1,40.1-40.1
	C222.7,103.2,240.7,121.2,240.7,143.3z"/>
<path class="st2" d="M-35.9,128.6L-35.9,128.6L-35.9,128.6z"/>
<path class="st2" d="M81.9,101L81.9,101l-1.2-1.7l-5.3-7.5l-1.9-2.7l-0.5,0.4l0,0l-8.8,6.6l7.2,10.1l0,0.1l-1.6,1.1
	c-0.2,0.1-0.4,0.2-0.5,0.3c-1.2,0.9-1,2.6-0.4,3.4c0.6,0.8,2.1,0.8,3.2-0.1c1.2-0.8,1.6-2.6,1-3.4l0,0l-1.2-1.7l-4.4-5.8l8.5-6.3
	l-0.4-0.5l-8.5,6.3l-0.5-0.7l8.6-6.4l0.1,0.1l5.1,7.1l0,0.1l-1.6,1.1c-0.2,0.1-0.4,0.2-0.5,0.3c-1.2,0.9-1,2.6-0.4,3.4
	c0.6,0.8,2.1,0.8,3.2-0.1C82,103.5,82.5,101.8,81.9,101z"/>
<path class="st2" d="M133.9,122.5c-2.3-4.2,1.1-8.2,1.1-8.2c1.7-2.9-0.9-4-0.9-4l-1-0.4c-0.3-0.4-0.7-0.8-1.2-1l-1.4-0.6
	c2.6,2.5,0.8,4.9,0.8,4.9l-1.4,3.2l-5.9-8l2.2-1.6c0.3-0.1,0.5-0.3,0.7-0.4c1.6-1.2,1.4-3.6,0.5-4.7c-0.8-1.2-2.9-1.1-4.5,0.1
	c-1.6,1.2-2.2,3.6-1.5,4.8l0,0l1.8,2.4l0,0L133.9,122.5z M133.1,114.8l-1.5,2.9c-0.1-1.8,0.4-3.6,1.5-5c0.3-0.6,0.5-1.2,0.4-1.8
	C134.1,112.2,134,113.7,133.1,114.8L133.1,114.8z"/>
<path class="st2" d="M48.1,71.6L48.1,71.6l-1.8-2.4l-7.5-9.9l3.8-0.7c1.9-0.7,3.9,0.1,4.7,1.9l-0.1-1.7c0,0-0.3-2.8-3.6-2.1
	c0,0-4.8,2.2-8.2-1.2l10,14l0.1,0.1l-2.3,1.6c-0.3,0.1-0.5,0.3-0.7,0.4c-1.6,1.2-1.4,3.6-0.5,4.7c0.9,1.1,2.9,1.1,4.5-0.1
	C48.3,75.2,48.9,72.8,48.1,71.6z"/>
<path class="st2" d="M91.9,81.3l-2.3,1.6c-0.3,0.1-0.5,0.3-0.7,0.4c-1.6,1.2-1.4,3.6-0.5,4.7c0.9,1.1,2.9,1.1,4.5-0.1
	c1.6-1.2,2.2-3.6,1.5-4.8l0,0l-1.8-2.4l-6.1-8.1l11.8-8.8l-0.5-0.7L86,71.9l-0.7-1L97.1,62l0.1,0.1l7,9.9l0.1,0.1l-2.3,1.6
	c-0.3,0.1-0.5,0.3-0.7,0.4c-1.6,1.2-1.4,3.6-0.5,4.7c0.9,1.1,2.9,1.1,4.5-0.1c1.6-1.2,2.2-3.6,1.5-4.8l0,0l-1.8-2.4l-7.1-10l0,0l0,0
	l-0.2-0.3l-2.7-3.7L82,67.1l10,14L91.9,81.3z"/>
<path class="st2" d="M63,37.7c-7.6-4.3-6.1-13.8-6.1-13.8c-0.2-6.2-5.3-5.3-5.3-5.3l-1.8,0.4c-0.9-0.4-1.8-0.6-2.8-0.5l-2.8,0.5
	c6.5,1.5,5.9,6.9,5.9,6.9l0.9,6.3l-16.8-6.8l1.9-4.6c0.3-0.4,0.5-0.9,0.7-1.3c1.4-3.4-1.2-6.9-3.6-7.9s-5.5,1-6.9,4.5
	c-1.3,3.4,0,7.7,2.3,8.8l0,0l5.1,2.1l0-0.1L63,37.7z M54.4,26.6l0.5,6c-3.2-4.2-2.5-9.3-2.5-9.3c0-1.2-0.4-2.3-1.1-3.2
	C54.9,22.4,54.4,26.6,54.4,26.6L54.4,26.6z"/>
</svg>
